#!OML:ASF E:\acrobat2\Project_11_07_03\Capture day 1\Session 1\Acrobat.ASF
:FULLY-SPECIFIED
:DEGREES
87
root 9.39317 18.1027 -37.9731 3.9614 1.14158 0.95269
lowerback -6.68634 0.267469 -0.299661
upperback -1.87631 0.390383 -0.633667
thorax 1.81672 0.194121 -0.451659
lowerneck 4.42025 -8.80528 -5.65352
upperneck 4.31984 -12.1207 5.28926
head 1.33838 -6.12375 2.59838
rclavicle -9.49197e-015 1.13804e-014
rhumerus -40.9772 3.70271 -85.8671
rradius 28.9616
rwrist 4.28513
rhand 5.15553 -52.7489
rfingers 7.12502
rthumb 30.5183 -80.241
lclavicle -9.49197e-015 1.13804e-014
lhumerus -35.1061 -14.5795 92.5143
lradius 21.8351
lwrist 9.28715
lhand -9.3742 -10.6603
lfingers 7.12502
lthumb 16.5862 18.6509
rfemur 4.00036 8.53865 20.3625
rtibia 1.45457
rfoot -19.4064 -19.0697
rtoes 8.68855
lfemur -0.322023 -1.73663 -17.9316
ltibia 4.88029
lfoot -7.15871 -4.72923
ltoes 16.6103
88
root 9.39296 18.1029 -37.9733 3.9729 1.14122 0.965454
lowerback -6.674 0.261858 -0.311139
upperback -1.87907 0.383748 -0.641394
thorax 1.80695 0.190789 -0.453762
lowerneck 4.37759 -8.80382 -5.63913
upperneck 4.3635 -12.1183 5.29723
head 1.35928 -6.12167 2.59522
rclavicle -8.88319e-016 1.69961e-014
rhumerus -40.9699 3.65979 -85.8472
rradius 28.9304
rwrist 4.36736
rhand 4.8706 -52.3694
rfingers 7.12502
rthumb 30.2465 -79.9117
lclavicle -8.88319e-016 1.69961e-014
lhumerus -35.119 -14.5606 92.5078
lradius 21.8102
lwrist 9.29542
lhand -9.39189 -10.7223
lfingers 7.12502
lthumb 16.5692 18.5904
rfemur 3.98518 8.52784 20.3434
rtibia 1.46112
rfoot -19.4078 -19.0554
rtoes 8.67004
lfemur -0.335116 -1.74673 -17.9488
ltibia 4.88147
lfoot -7.15794 -4.71832
ltoes 16.7907
89
root 9.39272 18.1032 -37.9736 3.98109 1.14323 0.979574
lowerback -6.65665 0.257446 -0.325623
upperback -1.89778 0.37881 -0.651934
thorax 1.778 0.188303 -0.456992
lowerneck 4.41678 -8.80012 -5.6316
upperneck 4.37157 -12.1163 5.32874
head 1.35685 -6.12102 2.60613
rclavicle -2.83579e-015 6.95746e-015
rhumerus -41.0216 3.65101 -85.859
rradius 28.9113
rwrist 4.35843
rhand 4.64519 -52.2156
rfingers 7.12502
rthumb 30.0315 -79.7972
lclavicle -2.83579e-015 6.95746e-015
lhumerus -35.1722 -14.5431 92.507
lradius 21.7995
lwrist 9.31362
lhand -9.45133 -10.7888
lfingers 7.12502
lthumb 16.512 18.5286
rfemur 3.97838 8.52229 20.3258
rtibia 1.45759
rfoot -19.398 -19.037
rtoes 8.77726
lfemur -0.347034 -1.75284 -17.9675
ltibia 4.88453
lfoot -7.16471 -4.70563
ltoes 16.8152
90
root 9.39232 18.1035 -37.9739 3.98566 1.15126 0.98686
lowerback -6.63553 0.241905 -0.340214
upperback -1.9048 0.358871 -0.651041
thorax 1.75882 0.178341 -0.449591
lowerneck 4.41227 -8.78781 -5.64401
upperneck 4.38252 -12.1021 5.3699
head 1.36418 -6.1139 2.62145
rclavicle 2.03754e-015 -9.83984e-015
rhumerus -41.0561 3.70631 -85.8915
rradius 28.8943
rwrist 4.28245
rhand 4.52199 -52.2736
rfingers 7.12502
rthumb 29.9139 -79.8764
lclavicle 2.03754e-015 -9.83984e-015
lhumerus -35.2002 -14.4882 92.4969
lradius 21.794
lwrist 9.32406
lhand -9.51287 -10.8214
lfingers 7.12502
lthumb 16.4527 18.5009
rfemur 3.98256 8.53124 20.3229
rtibia 1.44289
rfoot -19.3867 -19.0357
rtoes 8.93046
lfemur -0.358572 -1.75444 -17.9754
ltibia 4.88942
lfoot -7.17109 -4.7035
ltoes 16.7837
91
root 9.39182 18.1038 -37.9742 3.98831 1.16536 0.981987
lowerback -6.61874 0.230778 -0.342533
upperback -1.91457 0.344031 -0.651411
thorax 1.73933 0.170943 -0.449947
lowerneck 4.43214 -8.77801 -5.64268
upperneck 4.37833 -12.0912 5.41089
head 1.36166 -6.1086 2.63598
rclavicle 7.59109e-015 -2.73329e-014
rhumerus -41.1044 3.74866 -85.9289
rradius 28.8813
rwrist 4.19153
rhand 4.49398 -52.4557
rfingers 7.12502
rthumb 29.8872 -80.0633
lclavicle 7.59109e-015 -2.73329e-014
lhumerus -35.2412 -14.4554 92.4906
lradius 21.7967
lwrist 9.33124
lhand -9.54718 -10.7827
lfingers 7.12502
lthumb 16.4197 18.5423
rfemur 3.99455 8.55531 20.3405
rtibia 1.42035
rfoot -19.3823 -19.0578
rtoes 9.06345
lfemur -0.372134 -1.75817 -17.9667
ltibia 4.89809
lfoot -7.17971 -4.71809
ltoes 16.7542
92
root 9.39137 18.104 -37.9742 3.99048 1.18295 0.967479
lowerback -6.60802 0.212914 -0.337934
upperback -1.91247 0.319695 -0.641885
thorax 1.73538 0.158819 -0.444711
lowerneck 4.41126 -8.76447 -5.64395
upperneck 4.37198 -12.0731 5.43986
head 1.36426 -6.09917 2.64509
rclavicle -1.85739e-015 1.72943e-014
rhumerus -41.1181 3.79932 -85.9508
rradius 28.8684
rwrist 4.14898
rhand 4.58109 -52.6689
rfingers 7.12502
rthumb 29.9703 -80.2616
lclavicle -1.85739e-015 1.72943e-014
lhumerus -35.2534 -14.3974 92.4766
lradius 21.794
lwrist 9.32558
lhand -9.53602 -10.674
lfingers 7.12502
lthumb 16.4304 18.6502
rfemur 4.01044 8.58497 20.3717
rtibia 1.39274
rfoot -19.3845 -19.0921
rtoes 9.16433
lfemur -0.388105 -1.7664 -17.9467
ltibia 4.91154
lfoot -7.18365 -4.74209
ltoes 16.7763
93
root 9.39099 18.1041 -37.9741 3.99557 1.19872 0.94591
lowerback -6.60565 0.199191 -0.323448
upperback -1.91076 0.300293 -0.633023
thorax 1.73574 0.149167 -0.445283
lowerneck 4.39704 -8.75312 -5.63284
upperneck 4.35486 -12.057 5.4604
head 1.36088 -6.09069 2.64992
rclavicle 3.49737e-015 -1.53064e-014
rhumerus -41.1226 3.80956 -85.9428
rradius 28.8665
rwrist 4.22435
rhand 4.45758 -52.3464
rfingers 7.12502
rthumb 29.8525 -79.9603
lclavicle 3.49737e-015 -1.53064e-014
lhumerus -35.2646 -14.3487 92.4632
lradius 21.7875
lwrist 9.31106
lhand -9.47443 -10.5106
lfingers 7.12502
lthumb 16.4897 18.8086
rfemur 4.01999 8.60941 20.4095
rtibia 1.3704
rfoot -19.3898 -19.1263
rtoes 9.1996
lfemur -0.408655 -1.77081 -17.9185
ltibia 4.93239
lfoot -7.1774 -4.77062
ltoes 16.8583
94
root 9.39053 18.1041 -37.9741 4.00478 1.2102 0.920075
lowerback -6.60586 0.183699 -0.306716
upperback -1.90309 0.27834 -0.619144
thorax 1.74364 0.138246 -0.442143
lowerneck 4.3527 -8.7364 -5.62613
upperneck 4.34195 -12.0327 5.4795
head 1.36372 -6.07772 2.65352
rclavicle 2.80162e-015 8.94531e-016
rhumerus -41.1044 3.83759 -85.9332
rradius 28.8682
rwrist 4.29263
rhand 4.2557 -51.899
rfingers 7.12502
rthumb 29.6598 -79.5473
lclavicle 2.80162e-015 8.94531e-016
lhumerus -35.2569 -14.2916 92.45
lradius 21.7722
lwrist 9.29023
lhand -9.39693 -10.3272
lfingers 7.12502
lthumb 16.5643 18.9859
rfemur 4.01683 8.62251 20.4488
rtibia 1.35867
rfoot -19.3924 -19.1553
rtoes 9.16154
lfemur -0.43619 -1.76153 -17.8839
ltibia 4.96438
lfoot -7.1607 -4.79534
ltoes 16.8773
95
root 9.3899 18.104 -37.9742 4.01332 1.21692 0.89548
lowerback -6.60097 0.180619 -0.287294
upperback -1.90149 0.272882 -0.616298
thorax 1.74261 0.135555 -0.450568
lowerneck 4.3332 -8.72535 -5.59643
upperneck 4.32399 -12.0161 5.49917
head 1.3596 -6.06858 2.65465
rclavicle 2.93518e-015 -9.54166e-015
rhumerus -41.1009 3.81462 -85.9091
rradius 28.8826
rwrist 4.4138
rhand 3.9669 -51.2538
rfingers 7.12502
rthumb 29.3841 -78.9508
lclavicle 2.93518e-015 -9.54166e-015
lhumerus -35.2662 -14.2861 92.4498
lradius 21.7527
lwrist 9.27936
lhand -9.34165 -10.1706
lfingers 7.12502
lthumb 16.6175 19.138
rfemur 4.00754 8.62434 20.4831
rtibia 1.35364
rfoot -19.3875 -19.1784
rtoes 9.0682
lfemur -0.463994 -1.74218 -17.849
ltibia 5.00124
lfoot -7.12916 -4.80435
ltoes 16.8928
